<svg width="480" height="480" viewBox="0 0 480 480" fill="none" xmlns="http://www.w3.org/2000/svg">
<g clip-path="url(#clip0_232_10900)">
<path d="M0 76.8C0 34.3845 34.3845 0 76.8 0H403.2C445.615 0 480 34.3845 480 76.8V403.2C480 445.615 445.615 480 403.2 480H76.8C34.3845 480 0 445.615 0 403.2V76.8Z" fill="url(#paint0_linear_232_10900)"/>
<path d="M383.997 280C383.997 265.148 378.101 250.901 367.599 240.398C357.097 229.897 342.849 224 327.997 224H299.357C292.282 223.999 286.05 219.35 284.029 212.57C278.942 195.51 269.206 180.201 255.919 168.352C242.633 156.504 226.315 148.584 208.786 145.477C191.257 142.369 173.204 144.198 156.654 150.758C140.106 157.317 125.708 168.347 115.068 182.617C104.426 196.89 97.9578 213.844 96.3958 231.578C94.834 249.312 98.2339 267.134 106.216 283.047C114.198 298.959 126.451 312.336 141.599 321.688C156.748 331.039 174.202 335.995 192.005 336H327.997C342.849 336 357.097 330.103 367.599 319.602C378.101 309.1 383.997 294.852 383.997 280ZM415.997 280C415.997 303.339 406.727 325.723 390.224 342.227C373.721 358.729 351.336 368 327.997 368H191.997C168.261 367.994 144.992 361.39 124.794 348.922C104.596 336.453 88.2577 318.608 77.6145 297.391C66.9719 276.174 62.4381 252.411 64.5208 228.766C66.604 205.121 75.2239 182.522 89.4114 163.492C103.599 144.463 122.798 129.754 144.865 121.008C166.932 112.262 190.999 109.825 214.372 113.969C237.745 118.112 259.508 128.671 277.224 144.469C291.915 157.57 303.327 173.853 310.669 192H327.997C351.336 192 373.721 201.271 390.224 217.773C406.727 234.277 415.997 256.661 415.997 280Z" fill="white"/>
</g>
<defs>
<linearGradient id="paint0_linear_232_10900" x1="0" y1="0" x2="480" y2="480" gradientUnits="userSpaceOnUse">
<stop stop-color="#3B82F6"/>
<stop offset="1" stop-color="#4F46E5"/>
</linearGradient>
<clipPath id="clip0_232_10900">
<rect width="480" height="480" fill="white"/>
</clipPath>
</defs>
</svg>
